<?xml version="1.0" encoding="UTF-8" standalone="no"?>
<svg width="269px" height="131px" viewBox="0 0 269 131" version="1.1" xmlns="http://www.w3.org/2000/svg" xmlns:xlink="http://www.w3.org/1999/xlink" xmlns:sketch="http://www.bohemiancoding.com/sketch/ns">
    <!-- Generator: Sketch 3.4.4 (17249) - http://www.bohemiancoding.com/sketch -->
    <title>logo</title>
    <desc>Created with Sketch.</desc>
    <defs></defs>
    <g id="site-web" stroke="none" stroke-width="1" fill="none" fill-rule="evenodd" sketch:type="MSPage">
        <g id="Artboard-8" sketch:type="MSArtboardGroup" transform="translate(-115.000000, -73.000000)">
            <g id="logo" sketch:type="MSLayerGroup" transform="translate(115.000000, 73.000000)">
                <g id="lines" transform="translate(0.015052, 4.572947)" stroke="#FFFFFF" stroke-width="1.04664252" sketch:type="MSShapeGroup">
                    <g id="n" transform="translate(217.758106, 0.228505)">
                        <path d="M28.1760093,80.3175653 L40.5467232,80.3175653 L40.5467232,3.42713505 L29.8181395,3.42713505 L29.8181395,49.4515497 L17.4474256,3.42713505 L2.33982803,3.42713505 L2.33982803,80.3175653 L13.1778871,80.3175653 L13.1778871,24.6269251 L28.1760093,80.3175653 Z" id="b-copy-2"></path>
                        <path d="M2.34634342,0.0599455315 L2.34634342,83.0698944" id="Line" stroke-linecap="square"></path>
                        <path d="M40.5467232,0.367375767 L40.5467232,83.3773246" id="Line-Copy-74" stroke-linecap="square"></path>
                        <path d="M50.467293,3.43630582 L39.1908622,3.43630581" id="Line" stroke-linecap="square"></path>
                        <path d="M3.78251376,3.43630581 L0.281238688,3.43630581" id="Line-Copy-73" stroke-linecap="square"></path>
                        <path d="M6.92418044,80.304452 L0.640847084,80.304452" id="Line-Copy-72" stroke-linecap="square"></path>
                        <path d="M41.8082383,80.304452 L35.5249049,80.304452" id="Line-Copy-75" stroke-linecap="square"></path>
                    </g>
                    <path d="M173.111387,31.0393551 L179.248453,32.23228 L186.027586,18.6739495 L177.353865,16.987949 L173.111387,31.0393551 Z" id="'" transform="translate(179.569555, 24.608564) rotate(-10.000000) translate(-179.569555, -24.608564) "></path>
                    <g id="d" transform="translate(143.747081, 28.760920)">
                        <path d="M4.25651714,60.2466213 L17.7837058,60.2466213 C26.3353767,60.2466213 30.5334697,55.2802736 30.5334697,46.1617337 L30.5334697,17.3406344 C30.5334697,8.22209452 26.3353767,3.25574689 17.7837058,3.25574689 L4.25651714,3.25574689 L4.25651714,60.2466213 Z" id="Path"></path>
                        <path d="M4.26182389,8.02993347 L4.26182389,0.176835775" id="Line" stroke-linecap="square"></path>
                        <path d="M12.9026162,54.8079785 L12.9026162,50.7873575" id="Line-Copy-71" stroke-linecap="square"></path>
                        <path d="M0.434394377,3.78707585 L8.91376667,3.78707585" id="Line-Copy-69" stroke-linecap="square"></path>
                        <path d="M10.1895286,52.6324535 L14.6089289,52.6324535" id="Line-Copy-70" stroke-linecap="square"></path>
                        <path d="M17.6282208,11.9246861 C20.349207,11.9246861 21.9817988,13.3901657 21.9817988,17.4609425 L21.9817988,47.0961972 C21.9817988,51.1669739 20.349207,52.6324535 17.6282208,52.6324535 L12.8081881,52.6324535 L12.8081881,11.9246861 L17.6282208,11.9246861 Z" id="Path"></path>
                    </g>
                    <g id="b" transform="translate(0.338859, 14.366591)">
                        <path d="M28.966841,4.63783306 L10.7939339,4.63783306 L10.7939339,81.5282633 L29.7331685,81.5282633 C41.7754563,81.5282633 48.015551,75.157342 48.015551,63.294247 L48.015551,57.0331691 C48.015551,48.9047522 45.4976181,43.0830482 39.0385727,40.5566483 C44.4028646,38.0302485 46.8113222,32.9774488 46.8113222,25.0687188 L46.8113222,22.322632 C46.8113222,10.4595371 41.4470303,4.63783306 28.966841,4.63783306 Z M28.2005136,46.9275697 C33.6742809,46.9275697 35.9732631,49.1244391 35.9732631,56.2642648 L35.9732631,62.9647166 C35.9732631,68.6765771 33.7837562,70.5439161 29.7331685,70.5439161 L22.8362218,70.5439161 L22.8362218,46.9275697 L28.2005136,46.9275697 Z M28.638415,15.6221802 C32.9079534,15.6221802 34.7690343,18.0387366 34.7690343,23.5309102 L34.7690343,27.8148056 C34.7690343,33.96604 32.0321507,35.9432225 27.5436616,35.9432225 L22.8362218,35.9432225 L22.8362218,15.6221802 L28.638415,15.6221802 Z" id="Path"></path>
                        <path d="M10.7782193,73.5107545 L10.7782193,86.6256014" id="Line"></path>
                        <path d="M22.8165943,10.3376416 L22.8165943,73.4349808" id="Line-Copy-76"></path>
                        <path d="M22.7322485,46.9583781 L20.5306376,46.9583781" id="Line-Copy-77"></path>
                        <path d="M22.7908375,70.5421163 L20.5892265,70.5421163" id="Line-Copy-80"></path>
                        <path d="M23.3408849,35.8984557 L21.1392739,35.8984557" id="Line-Copy-78"></path>
                        <path d="M22.9103049,15.6195156 L20.708694,15.6195156" id="Line-Copy-79"></path>
                        <path d="M10.7782193,0.294270494 L10.7782193,13.4091174" id="Line-Copy-68"></path>
                        <path d="M27.2032836,4.60628994 L0.616036207,4.60628995" id="Line"></path>
                        <path d="M27.2248524,81.549367 L7.8363488,81.549367" id="Line-Copy-67"></path>
                    </g>
                    <g id="i" transform="translate(198.508736, 60.083223) rotate(6.000000) translate(-198.508736, -60.083223) translate(186.032562, 16.329740)" fill="#535860">
                        <path d="M2.08792621,0.528065318 L10.5366728,83.2697103" id="Line"></path>
                        <path d="M14.245626,0.528065318 L23.1612725,85.9522893" id="Line-Copy-14"></path>
                        <path d="M0.0616429069,4.18910349 L17.892936,2.56197541" id="Line-Copy-13"></path>
                        <path d="M6.54574947,80.664123 L24.3770425,79.036995" id="Line-Copy-15"></path>
                    </g>
                    <g id="i" transform="translate(99.916243, 60.790804) rotate(-6.000000) translate(-99.916243, -60.790804) translate(86.816261, 15.787221)" fill="#FFFFFF">
                        <path d="M11.7297753,0.786961109 L2.00361541,78.0755447" id="Line-Copy-20"></path>
                        <path d="M24.3792232,0.560091825 L13.3691219,88.6335108" id="Line-Copy-21"></path>
                        <path d="M7.3559268,4.17067511 L25.4278047,7.41610647" id="Line-Copy-22"></path>
                        <path d="M0.014602734,74.863042 L17.8458958,76.49017" id="Line-Copy-23"></path>
                    </g>
                    <g id="l" transform="translate(112.185216, 11.434867)" fill="#535860">
                        <path d="M2.08792621,66.0199704 L30.8611491,66.0199704" id="Line-Copy-17"></path>
                        <path d="M2.84543513,0.528065318 L2.84543513,68.0538804" id="Line"></path>
                        <path d="M28.4296091,55.4436379 L28.4296091,68.0538804" id="Line-Copy-19"></path>
                        <path d="M0.466899567,1.74841138 L21.8838601,1.74841138" id="Line-Copy-16"></path>
                        <path d="M9.38254609,57.0707659 L29.6453791,57.0707659" id="Line"></path>
                        <path d="M13.3821083,0.479638888 L13.3821083,57.88433" id="Line-Copy-18"></path>
                    </g>
                    <g id="u" transform="translate(54.684218, 22.297378)">
                        <path d="M3.26032594,4.25258274 L3.26032594,47.0962161 C3.26032594,56.0990058 7.74663492,61.2434571 16.3988022,61.2434571 C25.0509696,61.2434571 29.5372785,56.0990058 29.5372785,47.0962161 L29.5372785,4.25258274 L21.2055619,4.25258274 L21.2055619,47.6588904 C21.2055619,51.677993 19.4430833,53.1248699 16.6391402,53.1248699 C13.8351971,53.1248699 12.0727186,51.677993 12.0727186,47.6588904 L12.0727186,4.25258274 L3.26032594,4.25258274 Z" id="Path"></path>
                        <path d="M3.24205328,32.5736292 L3.24205328,9.76276845" id="Line" stroke-linecap="square"></path>
                        <path d="M21.1971693,32.5876988 L21.0733463,1.68718532" id="Line-Copy-65" stroke-linecap="square"></path>
                        <path d="M12.0728096,32.5391849 L12.0728096,2.44057151" id="Line-Copy-63" stroke-linecap="square"></path>
                        <path d="M29.5246693,32.6092992 L29.5246693,0.0159892346" id="Line-Copy-66" stroke-linecap="square"></path>
                        <path d="M16.2102664,4.06782019 L1.42108547e-14,4.06782019" id="Line-Copy-62" stroke-linecap="square"></path>
                        <path d="M34.0415595,4.06782019 L20.262833,4.06782019" id="Line-Copy-64" stroke-linecap="square"></path>
                    </g>
                </g>
                <path d="M24.6529241,15.6978377 L5.27487478,15.6978377 L5.27487478,98.0090255 L25.4700707,98.0090255 C38.3109467,98.0090255 44.9648552,91.1889557 44.9648552,78.4895153 L44.9648552,71.7870328 C44.9648552,63.0855644 42.2799448,56.8534316 35.3925658,54.1489212 C41.1125924,51.4444107 43.6807676,46.0353898 43.6807676,37.5690962 L43.6807676,34.6294109 C43.6807676,21.9299705 37.960741,15.6978377 24.6529241,15.6978377 L24.6529241,15.6978377 Z M23.1759769,61.0535185 C29.0047396,60.748046 31.575901,62.9682728 31.9759142,70.6009798 L32.3513112,77.7639818 C32.6713218,83.8701474 30.4444355,85.9885828 26.1311511,86.2146325 L18.78691,86.5995279 L17.4637894,61.3528816 L23.1759769,61.0535185 Z M23.7337087,27.4806493 C28.2801437,27.2423808 30.3973121,29.7218979 30.7050146,35.593211 L30.9450225,40.1728352 C31.2896493,46.7487058 28.4860408,49.0151148 23.7064554,49.2656023 L18.6937194,49.5283086 L17.5552202,27.8044502 L23.7337087,27.4806493 Z M52.0499971,24.5220142 L52.0499971,70.3861138 C52.0499971,80.0235981 56.8338171,85.530732 66.0597556,85.530732 C75.2856942,85.530732 80.0695142,80.0235981 80.0695142,70.3861138 L80.0695142,24.5220142 L71.1852771,24.5220142 L71.1852771,70.9884566 C71.1852771,75.2909049 69.3059192,76.8397863 66.3160317,76.8397863 C63.3261442,76.8397863 61.4467864,75.2909049 61.4467864,70.9884566 L61.4467864,24.5220142 L52.0499971,24.5220142 Z M90.9852386,93.6682376 L102.902425,93.6682376 L102.902425,17.277987 L90.9852386,17.277987 L90.9852386,93.6682376 Z M111.687228,78.3549944 L140.099867,78.3549944 L140.099867,68.5199248 L122.427401,68.5199248 L122.427401,9.50950715 L111.687228,9.50950715 L111.687228,78.3549944 Z M173.281508,34.926465 L178.486328,35.8442151 L182.135844,21.6397368 L174.7797,20.34265 L173.281508,34.926465 Z M189.274178,99.3645811 L202.115054,99.3645811 L202.115054,17.0533933 L189.274178,17.0533933 L189.274178,99.3645811 Z M242.211386,82.471898 L255.402468,82.471898 L255.402468,0.160710171 L243.962415,0.160710171 L243.962415,49.4298354 L230.771333,0.160710171 L214.661871,0.160710171 L214.661871,82.471898 L226.218659,82.471898 L226.218659,22.8550805 L242.211386,82.471898 Z M145.277059,90.2908871 L159.701308,90.2908871 C168.820086,90.2908871 173.296577,84.9744131 173.296577,75.2130182 L173.296577,44.3600381 C173.296577,34.5986432 168.820086,29.2821692 159.701308,29.2821692 L145.277059,29.2821692 L145.277059,90.2908871 Z M159.535512,37.9977004 C162.436941,37.9977004 164.177799,39.566496 164.177799,43.9242615 L164.177799,75.6487948 C164.177799,80.0065603 162.436941,81.5753559 159.535512,81.5753559 L154.395837,81.5753559 L154.395837,37.9977004 L159.535512,37.9977004 Z" id="fill-top" fill="#FFFFFF" sketch:type="MSShapeGroup"></path>
                <g id="stamp" transform="translate(133.779513, 109.956958) rotate(-4.000000) translate(-133.779513, -109.956958) translate(74.279513, 92.956958)" sketch:type="MSShapeGroup">
                    <rect id="Rectangle-14-Copy" fill="#D93C4F" x="0.278976015" y="0.813729381" width="118.224852" height="32.7119141"></rect>
                    <path d="M10.2788341,5.90803537 L5.10792144,5.90803537 L5.10792144,27.7130886 L10.4968846,27.7130886 C13.923393,27.7130886 15.6989473,25.9063842 15.6989473,22.542176 L15.6989473,20.7666216 C15.6989473,18.461516 14.9824955,16.810562 13.1446411,16.0941102 C14.6709948,15.3776585 15.3562964,13.944755 15.3562964,11.7019495 L15.3562964,10.9231976 C15.3562964,7.5589894 13.8299427,5.90803537 10.2788341,5.90803537 L10.2788341,5.90803537 Z M10.0607835,17.9008146 C11.6182873,17.9008146 12.2724389,18.5238162 12.2724389,20.5485711 L12.2724389,22.4487257 C12.2724389,24.0685297 11.6494374,24.598081 10.4968846,24.598081 L8.5344298,24.598081 L8.5344298,17.9008146 L10.0607835,17.9008146 Z M10.1853838,9.02304298 C11.4002368,9.02304298 11.9297881,9.70834465 11.9297881,11.2658484 L11.9297881,12.4807014 C11.9297881,14.2251057 11.1510362,14.785807 9.87388307,14.785807 L8.5344298,14.785807 L8.5344298,9.02304298 L10.1853838,9.02304298 Z M25.3554708,5.90803537 L20.3403086,5.90803537 L16.8515001,27.7130886 L19.9976578,27.7130886 L20.5895092,23.7570289 L24.7947695,23.7570289 L25.3866209,27.7130886 L28.8442794,27.7130886 L25.3554708,5.90803537 Z M22.6765643,9.7706448 L24.3275183,20.7977717 L21.0256103,20.7977717 L22.6765643,9.7706448 Z M41.0862592,27.7130886 C40.7436084,26.9031866 40.7124583,26.1244347 40.7124583,25.0653321 L40.7124583,21.7011239 C40.7124583,19.4271684 40.1517569,17.7762143 38.4385028,17.0597626 C39.9648565,16.3433108 40.6813082,14.8792573 40.6813082,12.6364518 L40.6813082,10.9231976 C40.6813082,7.5589894 39.1549545,5.90803537 35.6038458,5.90803537 L30.4329332,5.90803537 L30.4329332,27.7130886 L33.8594416,27.7130886 L33.8594416,18.8353169 L35.0431445,18.8353169 C36.6006483,18.8353169 37.28595,19.5829187 37.28595,21.6076737 L37.28595,25.034182 C37.28595,26.8097364 37.4105503,27.1523872 37.5974507,27.7130886 L41.0862592,27.7130886 Z M35.5103956,9.02304298 C36.7252486,9.02304298 37.2547999,9.70834465 37.2547999,11.2658484 L37.2547999,13.4152037 C37.2547999,15.1596079 36.476048,15.7203093 35.1988949,15.7203093 L33.8594416,15.7203093 L33.8594416,9.02304298 L35.5103956,9.02304298 Z M49.6525301,19.5829187 L49.6525301,22.6979263 C49.6525301,24.2554301 48.9672285,24.8161315 47.8769758,24.8161315 C46.7867231,24.8161315 46.1014215,24.2554301 46.1014215,22.6979263 L46.1014215,10.9231976 C46.1014215,9.36569381 46.7867231,8.77384237 47.8769758,8.77384237 C48.9672285,8.77384237 49.6525301,9.36569381 49.6525301,10.9231976 L49.6525301,13.2594533 L52.892138,13.2594533 L52.892138,11.1412481 C52.892138,7.65243963 51.1477338,5.65883477 47.7835256,5.65883477 C44.4193174,5.65883477 42.6749131,7.65243963 42.6749131,11.1412481 L42.6749131,22.4798758 C42.6749131,25.9686843 44.4193174,27.9622892 47.7835256,27.9622892 C51.1477338,27.9622892 52.892138,25.9686843 52.892138,22.4798758 L52.892138,19.5829187 L49.6525301,19.5829187 Z M58.4057015,9.02304298 L64.3242159,9.02304298 L64.3242159,5.90803537 L54.9791931,5.90803537 L54.9791931,27.7130886 L64.3242159,27.7130886 L64.3242159,24.598081 L58.4057015,24.598081 L58.4057015,18.2123154 L63.109363,18.2123154 L63.109363,15.0973078 L58.4057015,15.0973078 L58.4057015,9.02304298 Z M66.4424211,27.7130886 L75.5070932,27.7130886 L75.5070932,24.598081 L69.8689295,24.598081 L69.8689295,5.90803537 L66.4424211,5.90803537 L66.4424211,27.7130886 Z M80.1484545,10.9231976 C80.1484545,9.36569381 80.8337562,8.77384237 81.9240089,8.77384237 C83.0142615,8.77384237 83.6995632,9.36569381 83.6995632,10.9231976 L83.6995632,22.6979263 C83.6995632,24.2554301 83.0142615,24.8472816 81.9240089,24.8472816 C80.8337562,24.8472816 80.1484545,24.2554301 80.1484545,22.6979263 L80.1484545,10.9231976 Z M76.7219462,22.4798758 C76.7219462,25.9686843 78.5598007,27.9622892 81.9240089,27.9622892 C85.2882171,27.9622892 87.1260716,25.9686843 87.1260716,22.4798758 L87.1260716,11.1412481 C87.1260716,7.65243963 85.2882171,5.65883477 81.9240089,5.65883477 C78.5598007,5.65883477 76.7219462,7.65243963 76.7219462,11.1412481 L76.7219462,22.4798758 Z M96.6579948,27.7130886 L100.177953,27.7130886 L100.177953,5.90803537 L97.125246,5.90803537 L97.125246,18.9599172 L93.6052874,5.90803537 L89.3065769,5.90803537 L89.3065769,27.7130886 L92.3904344,27.7130886 L92.3904344,11.92 L96.6579948,27.7130886 Z M110.239428,5.90803537 L105.224266,5.90803537 L101.735457,27.7130886 L104.881615,27.7130886 L105.473466,23.7570289 L109.678727,23.7570289 L110.270578,27.7130886 L113.728236,27.7130886 L110.239428,5.90803537 Z M107.560521,9.7706448 L109.211475,20.7977717 L105.909567,20.7977717 L107.560521,9.7706448 Z" id="barcelona-copy" fill="#FFFFFF"></path>
                </g>
            </g>
        </g>
    </g>
</svg>